HIERARCHY
ROOT Hips
{
  OFFSET 13.1901 99.3847 -178.854
  CHANNELS 6 Xposition Yposition Zposition Zrotation Xrotation Yrotation
  JOINT RightUpLeg
  {
    OFFSET -8.9458 -8.66707 0.101652
    CHANNELS 3 Zrotation Xrotation Yrotation
    JOINT RightLeg
    {
      OFFSET 0 -44.4227 1.3727
      CHANNELS 3 Zrotation Xrotation Yrotation
      JOINT RightFoot
      {
        OFFSET 0.253549 -42.0924 -1.46059
        CHANNELS 3 Zrotation Xrotation Yrotation
        JOINT RightToes
        {
          OFFSET 0.04 -4.41509 8.4991
          CHANNELS 3 Zrotation Xrotation Yrotation
          End Site
          {
            OFFSET -0.08 -0.137448 9.77979
          }
        }
      }
    }
  }
  JOINT Spine
  {
    OFFSET 0 11.8905 0
    CHANNELS 3 Zrotation Xrotation Yrotation
    JOINT Spine1
    {
      OFFSET 0 25.6574 0.127663
      CHANNELS 3 Zrotation Xrotation Yrotation
      JOINT HEad
      {
        OFFSET 0 8.73416 0.011341
        CHANNELS 3 Zrotation Xrotation Yrotation
        End Site
        {
          OFFSET -0.29 12.7742 2.51395
        }
      }
      JOINT LeftShoulder1
      {
        OFFSET 8.99 -0.362252 -0.22
        CHANNELS 3 Zrotation Xrotation Yrotation
        JOINT LeftArm
        {
          OFFSET 10.2827 -0.00338 0.322123
          CHANNELS 3 Zrotation Xrotation Yrotation
          JOINT LeftForeArm
          {
            OFFSET 32.7669 0.099144 -1.42434
            CHANNELS 3 Zrotation Xrotation Yrotation
            JOINT LeftHand
            {
              OFFSET 27.5643 0.085362 1.02216
              CHANNELS 3 Zrotation Xrotation Yrotation
              End Site
              {
                OFFSET 16.7443 -0.6 1.50291
              }
            }
          }
        }
      }
      JOINT RightShoulder
      {
        OFFSET -8.99 -0.362252 -0.22
        CHANNELS 3 Zrotation Xrotation Yrotation
        JOINT RightArm
        {
          OFFSET -10.2827 -0.00338 0.322123
          CHANNELS 3 Zrotation Xrotation Yrotation
          JOINT RightForeArm
          {
            OFFSET -32.8971 0.099144 -1.42434
            CHANNELS 3 Zrotation Xrotation Yrotation
            JOINT RightHand
            {
              OFFSET -27.4921 0.085362 1.02216
              CHANNELS 3 Zrotation Xrotation Yrotation
              End Site
              {
                OFFSET -16.6312 -0.6 1.50291
              }
            }
          }
        }
      }
    }
  }
  JOINT LeftUpLeg
  {
    OFFSET 8.9458 -8.66707 0.101652
    CHANNELS 3 Zrotation Xrotation Yrotation
    JOINT LeftLeg
    {
      OFFSET 0 -44.4227 1.3727
      CHANNELS 3 Zrotation Xrotation Yrotation
      JOINT LeftFoot
      {
        OFFSET -0.253549 -42.0924 -1.46059
        CHANNELS 3 Zrotation Xrotation Yrotation
        JOINT LeftToes
        {
          OFFSET -0.04 -4.41509 8.4991
          CHANNELS 3 Zrotation Xrotation Yrotation
          End Site
          {
            OFFSET 0.08 -0.047448 9.77979
          }
        }
      }
    }
  }
}
MOTION
Frames:	19
Frame Time:	0.0166667
13.9579 97.7344 11.1191 -1.02573 -2.30448 0.0985149 4.71602 14.4594 -3.65811 1.65451 33.835 -17.0841 2.01588 -22.3178 0.075221 2.16491 14.7817 17.5571 2.91975 2.56209 -0.517148 -0.856419 -1.74954 -0.244323 -1.03056 -0.313435 4.54914 1.0871e-016 3.97569e-016 -0 -81.2395 -36.9283 7.54497 -25.3855 12.6073 -6.29699 0.368473 9.90896 -0.00117926 -6.66664 0.234656 5.44955 98.0112 -19.0083 17.2789 18.8103 14.2708 12.4124 -0.369625 9.91382 0.00119886 -6.23649 -21.5432 0.601521 5.51035 14.0688 9.0949 0.630681 8.01358 -0.0211827 -6.59441 8.0823 4.11614 
14.0883 97.9539 13.5006 0.0156418 -2.58562 0.329873 3.02966 13.392 -2.85827 2.686 37.7895 -19.4025 2.43878 -18.843 0.0801776 0.78645 22.3681 24.8211 2.91974 2.63603 -0.870142 -2.44208 -1.58234 -0.255155 -0.581511 -0.408244 4.49821 -1.89467e-016 0 -0 -81.1123 -36.716 6.64437 -25.1779 12.6415 -6.34632 0.368473 9.90896 -0.00117926 -6.35763 0.264459 5.65638 98.3514 -19.5914 16.5494 18.6517 14.2269 12.2006 -0.369625 9.91382 0.00119886 -7.25894 -20.567 -3.46001 3.98784 16.3171 12.6646 1.28195 6.04402 -0.0674956 -7.42284 8.79294 4.62006 
14.2784 98.1735 15.7313 0.869694 -2.99907 0.607293 1.40127 11.6746 -2.95968 3.22067 42.7911 -20.456 2.91183 -14.589 0.0381818 -0.714814 27.3265 28.166 2.71276 2.72779 -1.09151 -3.45158 -0.960728 -0.223831 -0.464871 -0.618809 4.35034 -2.01891e-017 0 9.93923e-017 -81.8214 -36.4398 4.96707 -24.7075 12.5886 -5.93327 0.368473 9.90896 -0.00117926 -6.70559 0.232082 5.45618 99.0579 -19.8026 16.0389 18.4913 14.1399 11.7294 -0.369625 9.91382 0.00119886 -8.51442 -19.1255 -3.68828 4.19942 17.3053 11.9315 1.68788 4.69343 -0.0812058 -9.15776 8.83131 5.47835 
14.4822 98.3863 17.8272 1.64057 -3.34667 0.8208 -0.136202 9.30472 -3.33817 3.53958 48.2563 -20.87 3.15826 -10.2393 -0.0274196 -1.48745 30.5459 27.8016 2.35633 2.83902 -1.22207 -4.1598 -0.277207 -0.180253 -0.508526 -0.804119 4.22869 -5.35787e-017 -9.93923e-017 -9.93923e-017 -82.806 -35.9541 3.07949 -24.2621 12.5621 -5.66752 0.368473 9.90896 -0.00117926 -7.20736 0.185295 5.14284 99.7307 -19.843 15.6485 18.3844 14.0349 11.1436 -0.369625 9.91382 0.00119886 -9.82912 -17.5912 -2.85951 4.93573 17.7187 10.2451 1.9334 3.40298 -0.0771087 -10.7232 8.64783 6.21969 
14.6779 98.5793 19.7528 2.38744 -3.4146 0.795558 -1.47821 6.15782 -3.74692 3.37935 53.6538 -20.0552 2.80897 -5.82755 -0.114194 -1.29795 31.0242 21.6399 1.77448 2.98813 -1.24786 -4.62552 0.115041 -0.148606 -0.651317 -0.720605 4.29683 -1.49865e-016 0 -0 -83.6442 -35.1768 1.55975 -24.1306 12.6745 -6.16713 0.368473 9.90896 -0.00117926 -7.466 0.162443 4.96851 99.9176 -19.8317 15.3032 18.4369 13.9305 10.5295 -0.369625 9.91382 0.00119886 -10.8947 -16.2753 -2.53848 5.33834 17.8647 9.76143 1.89402 2.18976 -0.0532378 -11.2438 8.37571 6.42622 
14.8423 98.786 21.5715 3.03674 -3.36547 0.665757 -2.63035 2.67575 -3.99746 2.96904 58.8034 -19.2885 2.17209 -3.11432 -0.185643 -0.96023 29.7358 14.4889 1.12774 3.1244 -1.21715 -4.92929 0.450275 -0.117335 -0.838536 -0.658342 4.40976 2.32951e-017 0 1.98785e-016 -84.4012 -34.1364 0.121753 -24.164 12.8601 -7.0545 0.368473 9.90896 -0.00117926 -7.56425 0.151471 4.77092 99.869 -19.739 15.0817 18.5558 13.8219 9.88582 -0.369625 9.91382 0.00119886 -11.7446 -14.9656 -2.65062 5.42011 17.6622 9.98776 1.83226 1.14124 -0.0250699 -11.6377 8.00339 6.54799 
14.9326 99.0611 23.3302 3.55877 -3.309 0.489447 -3.46126 -0.686431 -3.68686 3.94978 63.3027 -21.2836 1.35092 -4.91561 -0.1844 -0.773882 28.5396 11.5263 0.558535 3.18877 -1.18391 -5.22814 0.888394 -0.0788919 -0.989193 -0.865442 4.48404 -3.26131e-017 -9.93923e-017 -1.98785e-016 -84.9407 -32.8021 -1.30978 -24.3568 13.0985 -8.2113 0.368473 9.90896 -0.00117926 -7.41889 0.156188 4.47219 99.7055 -19.5484 15.0969 18.6681 13.7051 9.20386 -0.369625 9.91382 0.00119886 -12.22 -13.4445 -3.9717 4.73149 16.9528 11.5578 2.05061 0.466682 -0.0125044 -12.5845 7.55432 6.92371 
14.9871 99.328 25.0423 3.88897 -3.18987 0.320712 -3.95059 -4.11355 -3.20916 5.97513 66.9977 -24.4565 0.541859 -8.09878 -0.171089 -0.549673 27.0503 9.52876 0.0469784 3.22451 -1.11712 -5.35313 1.29931 -0.0454984 -1.11831 -1.22402 4.49885 -3.44767e-016 1.98785e-016 1.98785e-016 -85.4257 -31.2493 -2.78541 -24.5609 13.361 -9.47926 0.368473 9.90896 -0.00117926 -7.13117 0.167308 4.07141 99.3565 -19.3414 15.1689 18.8208 13.5973 8.59207 -0.369625 9.91382 0.00119886 -12.3913 -12.0328 -5.47124 3.95701 16.2571 13.2071 2.29871 -0.182182 -3.70275e-005 -13.9044 7.05414 7.4666 
15.028 99.5207 26.7296 3.88662 -2.95112 0.233832 -4.06232 -7.71931 -2.82509 7.76361 69.7305 -26.6841 0.00730254 -10.1847 -0.197966 -0.381508 25.1178 6.55486 -0.364921 3.25691 -0.988875 -5.10767 1.56019 -0.0314372 -1.2443 -1.73745 4.39534 3.47873e-016 3.97569e-016 9.93923e-017 -85.9968 -29.5209 -4.36818 -24.6068 13.6276 -10.6837 0.368473 9.90896 -0.00117926 -6.77199 0.176433 3.5074 98.7566 -19.1835 15.1424 19.0626 13.5153 8.15357 -0.369625 9.91382 0.00119886 -12.3768 -11.1035 -6.28466 3.60232 16.1854 13.6122 2.38997 -1.1547 0.0232644 -16.056 6.46035 8.38297 
15.0604 99.6617 28.4131 3.74875 -2.7075 0.226165 -3.97843 -11.2436 -2.51447 9.11754 71.5825 -28.1234 -0.345623 -12.0287 -0.231308 -0.341685 22.9465 4.11415 -0.720509 3.28088 -0.843789 -4.72982 1.80917 -0.0230045 -1.28595 -2.29084 4.20418 4.06887e-016 -3.97569e-016 -0 -86.5751 -27.6723 -6.1003 -24.5788 13.869 -11.7499 0.368473 9.90896 -0.00117926 -6.34964 0.184635 2.88313 98.0172 -19.1034 15.0575 19.3224 13.4619 7.89402 -0.369625 9.91382 0.00119886 -12.2947 -10.3098 -6.78317 3.44456 16.3568 13.6657 2.4393 -2.23835 0.0511571 -17.7998 6.00062 9.13181 
15.1025 99.7409 30.1257 3.64673 -2.5577 0.325922 -3.91598 -14.4701 -2.41697 9.29818 72.5827 -27.9395 -0.476391 -13.6258 -0.250189 -0.285253 20.7832 3.49695 -1.06165 3.30958 -0.719078 -4.41227 2.14435 -0.0105033 -1.12046 -2.77922 3.93634 -4.00675e-016 -7.95139e-016 1.49089e-016 -87.134 -25.7535 -8.0837 -24.5278 14.0464 -12.5107 0.368473 9.90896 -0.00117926 -5.88168 0.191585 2.30658 97.1909 -19.1617 14.8974 19.5471 13.4459 7.86808 -0.369625 9.91382 0.00119886 -12.2998 -9.42856 -7.06516 3.46835 16.6157 13.9926 2.51008 -3.36565 0.082631 -17.2989 6.16172 8.93301 
15.1375 99.7897 31.8541 3.51419 -2.4929 0.514672 -3.82877 -17.3784 -2.32521 8.8482 72.6682 -27.1717 -0.511597 -15.0775 -0.266783 -0.180738 18.598 3.08824 -1.35048 3.31361 -0.609035 -4.09588 2.56294 0.00382653 -0.886381 -3.17574 3.59076 2.64011e-016 0 -1.2424e-017 -87.6507 -23.8168 -10.2075 -24.4071 14.1831 -13.0634 0.368473 9.90896 -0.00117926 -5.41177 0.193102 1.70158 96.3848 -19.3291 14.6761 19.7293 13.4641 8.03216 -0.369625 9.91382 0.00119886 -12.2983 -8.45599 -7.066 3.63946 16.8824 14.0505 2.56917 -4.45072 0.112981 -16.8905 6.11974 8.71632 
15.1533 99.8377 33.5955 3.33878 -2.59042 0.800944 -3.68157 -19.8131 -2.0215 8.63829 71.723 -27.2871 -0.576535 -16.5595 -0.287868 -0.230073 16.3535 1.57878 -1.55674 3.25181 -0.519435 -3.78388 3.18906 0.0252793 -0.682996 -3.41501 3.1508 4.44159e-016 0 -4.96962e-017 -88.1655 -21.9189 -12.4789 -24.144 14.2793 -13.4094 0.368473 9.90896 -0.00117926 -5.01011 0.182437 0.991695 95.7739 -19.601 14.4071 19.8293 13.5251 8.40901 -0.369625 9.91382 0.00119886 -12.2587 -7.25317 -6.59418 3.99795 17.0141 13.2192 2.59598 -5.35342 0.135381 -19.1011 4.87344 9.46197 
15.1543 99.8788 35.3517 3.13582 -2.69046 1.13236 -3.50254 -21.9668 -1.64102 8.28148 69.9045 -27.5595 -0.638178 -17.8439 -0.309606 -0.411192 14.132 -0.361145 -1.69872 3.17264 -0.453099 -3.48221 3.74006 0.0409755 -0.494477 -3.50671 2.67431 3.54085e-016 0 -0 -88.559 -20.1132 -14.6884 -23.8574 14.3587 -13.6715 0.368473 9.90896 -0.00117926 -4.61545 0.166917 0.285779 95.2034 -19.9651 14.0744 19.8862 13.5992 8.85526 -0.369625 9.91382 0.00119886 -12.1711 -5.99486 -6.13283 4.32829 17.0432 12.3485 2.61362 -6.16898 0.154945 -21.4455 3.4518 10.2418 
15.1411 99.9263 37.1207 2.90411 -2.61985 1.45977 -3.32202 -24.0282 -1.28063 7.63704 67.2861 -27.8069 -0.713868 -18.7067 -0.331164 -0.709059 11.9789 -2.73051 -1.76812 3.11588 -0.419915 -3.19623 3.9101 0.035881 -0.345851 -3.42008 2.21504 2.48481e-016 -7.95139e-016 -1.98785e-016 -88.7388 -18.4762 -16.6059 -23.6663 14.4499 -14.0049 0.368473 9.90896 -0.00117926 -4.17504 0.151644 -0.332125 94.5495 -20.4112 13.6554 19.9351 13.6581 9.22149 -0.369625 9.91382 0.00119886 -11.9314 -4.84994 -6.24864 4.34574 16.9399 12.3286 2.63138 -6.96912 0.174994 -21.8779 2.73083 10.2597 
15.1129 99.9523 38.9114 2.66839 -2.49639 1.78146 -3.15097 -25.8518 -0.859033 6.87933 64.0158 -27.9906 -0.775859 -19.3128 -0.34937 -1.09048 10.0129 -4.91187 -1.81561 3.06634 -0.404384 -2.92855 3.89286 0.0215985 -0.206214 -3.21115 1.76957 -4.09993e-016 7.95139e-016 -0 -88.8245 -17.0098 -18.3472 -23.4893 14.5328 -14.3154 0.368473 9.90896 -0.00117926 -3.73226 0.136643 -0.863996 93.8903 -20.9292 13.1817 19.9543 13.7096 9.54741 -0.369625 9.91382 0.00119886 -11.6261 -3.71993 -6.47331 4.28446 16.7765 12.4253 2.67146 -7.68426 0.194161 -21.8909 2.12857 10.0897 
15.0676 99.9224 40.7398 2.4588 -2.3808 2.05881 -2.99749 -27.3487 -0.255109 6.27423 60.267 -28.0769 -0.837654 -19.7513 -0.366232 -1.39946 8.18582 -6.36799 -1.91825 3.02293 -0.388931 -2.66773 3.75547 0.0030969 -0.0672389 -2.88685 1.37022 -0 -7.95139e-016 -0 -88.9158 -15.7757 -19.9462 -23.2739 14.5861 -14.5093 0.368473 9.90896 -0.00117926 -3.32531 0.125787 -1.23995 93.2783 -21.5567 12.6716 19.9027 13.753 9.82781 -0.369625 9.91382 0.00119886 -11.351 -2.56535 -6.49603 4.29114 16.6426 12.1372 2.78871 -8.23455 0.213052 -22.5626 1.22825 10.1451 
15.0102 99.8697 42.5831 2.26455 -2.27109 2.35369 -2.89062 -28.5358 0.317639 5.66708 56.0404 -28.1154 -0.79308 -20.0268 -0.365584 -1.5408 7.0829 -6.92762 -1.9882 2.98307 -0.389685 -2.46236 3.57182 -0.0146783 0.105712 -2.5644 0.96304 2.48481e-016 0 -0 -88.9562 -14.6523 -21.3947 -23.0555 14.6448 -14.7397 0.368473 9.90896 -0.00117926 -2.91655 0.112624 -1.59154 92.6697 -22.1401 12.1425 19.8735 13.7856 10.048 -0.369625 9.91382 0.00119886 -11.0769 -1.36658 -6.42329 4.33516 16.4472 11.6572 2.89421 -8.72245 0.228978 -22.9921 0.42619 10.1183 
14.9496 99.8243 44.4199 2.07935 -2.1937 2.7375 -2.90907 -29.3833 0.606186 4.9725 51.3182 -28.2097 -0.464464 -20.1982 -0.320334 -1.28509 7.66354 -5.71147 -1.94559 2.94581 -0.419149 -2.35406 3.45597 -0.0237738 0.36277 -2.37123 0.486241 2.48481e-016 -7.95139e-016 -0 -88.8989 -13.5032 -22.7029 -22.8524 14.7437 -15.1629 0.368473 9.90896 -0.00117926 -2.48927 0.0898186 -2.06675 92.042 -22.4968 11.6108 19.9735 13.8055 10.1954 -0.369625 9.91382 0.00119886 -10.804 -0.0675764 -6.18948 4.46204 16.089 10.9093 2.87766 -9.25257 0.237565 -22.2799 0.135175 9.71341 
